<svg data-v-0dd9719b="" version="1.0" xmlns="http://www.w3.org/2000/svg" xmlns:xlink="http://www.w3.org/1999/xlink" width="100%" height="100%" viewBox="0 0 340.000000 250.000000" preserveAspectRatio="xMidYMid meet" color-interpolation-filters="sRGB" style="margin: auto;"> <rect data-v-0dd9719b="" x="0" y="0" width="100%" height="100%" fill="#fff" fill-opacity="1" class="background"></rect> <rect data-v-0dd9719b="" x="0" y="0" width="100%" height="100%" fill="url(#watermark)" fill-opacity="1" class="watermarklayer"></rect> <g data-v-0dd9719b="" fill="#333" class="icon-text-wrapper icon-svg-group iconsvg" transform="translate(47.93000030517578,95.03805160522461)"><g class="iconsvg-imagesvg" transform="translate(0,0)"><g><rect fill="#333" fill-opacity="0" stroke-width="2" x="0" y="0" width="60" height="59.9238966512529" class="image-rect"></rect> <svg x="0" y="0" width="60" height="59.9238966512529" filtersec="colorsb8307177105" class="image-svg-svg primary" style="overflow: visible;"><svg xmlns="http://www.w3.org/2000/svg" viewBox="-0.013412523083388805 0 100.12681579589844 100"><g fill-rule="evenodd"><path d="M50.05 64.56a33.61 33.61 0 0 1-33.61-33.62 2.25 2.25 0 0 1 4.5 0 29.11 29.11 0 0 0 29.11 29.12 9 9 0 1 1 0 18 2.25 2.25 0 1 1 0-4.49 4.5 4.5 0 0 0 3.19-1.33 4.51 4.51 0 0 0-3.19-7.69zm0-12.31a21.31 21.31 0 0 1-2.25-42.5V0a50.05 50.05 0 0 0 0 100v-9.74a21.27 21.27 0 0 1-13.54-6.9 2.24 2.24 0 1 1 3.32-3 17 17 0 0 0 5.66 4.1 16.82 16.82 0 1 0 6.81-32.2z" fill="#0d72ff"></path><path d="M50.05 35.45a33.63 33.63 0 0 1 33.62 33.62 2.25 2.25 0 0 1-4.5 0A29.12 29.12 0 0 0 50.05 40a9 9 0 0 1 0-18 2.25 2.25 0 0 1 0 4.5 4.51 4.51 0 1 0 0 9zm0 12.3a21.32 21.32 0 0 1 2.25 42.51V100a50.05 50.05 0 0 0 0-100v9.75a21.36 21.36 0 0 1 13.55 6.89 2.24 2.24 0 0 1-3.33 3 16.82 16.82 0 1 0-12.47 28.1z" fill="#0daeff"></path></g></svg></svg> <!----></g></g> <g transform="translate(67,0.9056987762451172)"><g data-gra="path-name" fill-rule="" class="tp-name iconsvg-namesvg" transform="translate(0,0)"><g transform="scale(1)"><g><path d="M42.54-18.59L42.54-18.59 22.81-18.59Q27.38-7.51 43.99-2.94L43.99-2.94 43.9-2.37Q39.81-1.63 38.23 3.21L38.23 3.21Q31.86-0.22 27.88-5.3 23.91-10.37 22.06-18.59L22.06-18.59 16.74-18.59 16.74-4.31Q19.51-4.97 25.93-6.64L25.93-6.64 26.02-6.24Q21.84-2.15 13.97 3.08L13.97 3.08Q13.58 3.96 12.83 4.53L12.83 4.53 7.29-2.68Q8.92-3.78 9.38-4.39 9.84-5.01 9.84-5.98L9.84-5.98 9.84-18.59 1.98-18.59 1.63-19.86 9.84-19.86 9.84-38.58 18.24-37.62Q18.11-36.83 16.74-36.65L16.74-36.65 16.74-23.99Q21.01-27.03 24.98-30.76 28.96-34.5 31.29-37.53L31.29-37.53 38.41-32.04Q37.92-31.33 36.65-31.64L36.65-31.64Q27.82-25.66 16.74-22.24L16.74-22.24 16.74-19.86 34.32-19.86 37.71-24.43Q41.57-21.36 43.81-19.29L43.81-19.29Q43.64-18.59 42.54-18.59ZM78.4-31.64L78.4-31.64 78.75-31.9Q86.35-30.1 88.55-25.8L88.55-25.8Q89.96-23.03 88.64-20.87L88.64-20.87Q87.5-18.98 85.39-19.34L85.39-19.34Q84.24-19.51 83.14-20.39L83.14-20.39Q82.88-23.29 81.58-26.28 80.29-29.27 78.4-31.64ZM59.85-14.24L59.85-14.24 59.37-14.59Q60.95-17.84 62.29-22.46 63.63-27.07 64.25-31.64L64.25-31.64 71.37-29.66 71.37-37.97 79.19-37.31Q79.06-36.3 77.61-36.08L77.61-36.08 77.61-16.39Q77.61-12.88 76.18-11.27 74.75-9.67 70.05-9.27L70.05-9.27Q69.83-12.57 69.08-13.71L69.08-13.71Q68.03-15.25 65.35-15.73L65.35-15.73 65.35-16.35Q69.7-16.08 70.58-16.08L70.58-16.08Q71.37-16.08 71.37-16.74L71.37-16.74 71.37-28.48Q70.93-28.39 70.53-28.39L70.53-28.39Q66.71-19.2 59.85-14.24ZM50.14-37.22L50.14-37.22 50.45-37.49Q57.35-37.49 59.41-34.32L59.41-34.32Q60.64-32.43 59.46-30.72L59.46-30.72Q58.36-29 56.21-29.36L56.21-29.36Q55.46-29.49 54.67-29.93L54.67-29.93Q53.53-33.66 50.14-37.22ZM46.05-27.25L46.05-27.25 46.36-27.51Q52.95-27.42 54.8-24.39L54.8-24.39Q55.94-22.54 54.76-20.83L54.76-20.83Q53.61-19.2 51.55-19.56L51.55-19.56Q50.76-19.73 49.97-20.21L49.97-20.21Q49.17-23.95 46.05-27.25ZM62.27-32.12L62.27-32.12 62.93-31.95Q57.7-18.28 55.94-12.3L55.94-12.3Q54.98-8.96 55.02-7.65L55.02-7.65Q55.06-6.64 56.12-4.33 57.17-2.02 57.08 0.18L57.08 0.18Q57.04 1.98 55.79 3.1 54.54 4.22 52.56 4.22L52.56 4.22Q50.19 4.22 49.53 1.89L49.53 1.89Q50.23-1.63 50.12-4.44 50.01-7.25 49.13-7.82L49.13-7.82Q48.03-8.57 46.63-8.61L46.63-8.61 46.63-9.4 48.82-9.4Q49.26-9.4 49.46-9.45 49.66-9.49 49.9-9.69 50.14-9.89 50.41-10.37L50.41-10.37Q51.37-11.78 52.73-14.28 54.1-16.79 62.27-32.12ZM57.79 4.26L57.79 4.26 57.61 3.78Q66.01 0.97 72.11-4.86 78.22-10.68 81.08-19.51L81.08-19.51 88.99-15.51Q88.55-14.68 86.97-14.94L86.97-14.94Q83.98-8.83 79.52-4.75 75.06-0.66 69.79 1.43 64.51 3.52 57.79 4.26ZM111.14-7.78L111.14-7.78 111.23-7.34Q105.29-2.64 97.56 2.02L97.56 2.02Q96.86 3.25 95.76 3.82L95.76 3.82 92.59-3.03Q93.56-3.6 93.87-4.04 94.17-4.48 94.17-5.23L94.17-5.23 94.17-16.88 100.5-13.97 105.82-13.97 105.82-19.47 93.34-19.47 92.59-20.74 105.91-20.74 108.11-22.94 106.74-22.94 106.74-24.48 97.95-24.48 96.72-22.41 91.63-25Q91.98-25.62 92.37-26.02L92.37-26.02 92.37-35.6 99.32-35.02Q99.18-34.15 97.65-33.88L97.65-33.88 97.65-25.75 99.54-25.75 99.54-38.63 106.35-38.01Q106.22-37.09 104.9-36.91L104.9-36.91 104.9-25.75 106.74-25.75 106.74-35.46 113.64-34.89Q113.47-33.93 112.15-33.75L112.15-33.75 112.15-24.13Q112.15-23.86 111.09-23.51 110.04-23.16 108.81-23.03L108.81-23.03 113.07-19.38Q112.46-18.76 111.49-18.63L111.49-18.63 111.49-11.87Q111.4-11.78 110.76-11.56 110.13-11.34 109.03-11.12 107.93-10.9 106.92-10.9L106.92-10.9 105.82-10.9 105.82-12.74 99.84-12.74 99.84-4.79Q106.92-6.55 111.14-7.78ZM129.11-3.21L129.11-3.21 129.59-3.21Q130.03-3.21 130.34-3.74L130.34-3.74Q131-5.05 132.23-10.63L132.23-10.63 132.67-10.63 132.89-3.3Q133.77-2.77 134.08-2.22 134.38-1.67 134.38-0.75L134.38-0.75Q134.38 2.77 128.58 2.77L128.58 2.77 126.87 2.77Q124.28 2.77 123.51 1.76 122.74 0.75 122.74-2.07L122.74-2.07 122.74-32.87 119.97-32.87 119.97-17.01Q119.97-13.84 119.69-11.62 119.4-9.4 118.41-6.83 117.42-4.26 115.66-2.44 113.91-0.62 110.76 1.12 107.62 2.86 103.18 4.09L103.18 4.09 102.83 3.69Q106.44 1.85 108.72-0.33 111.01-2.5 112.17-5.16 113.33-7.82 113.73-10.48 114.13-13.14 114.13-16.92L114.13-16.92 114.13-36.43 120.85-34.1 122.17-34.1 125.07-37.53 130.52-33.09Q129.95-32.43 128.72-32.21L128.72-32.21 128.72-4Q128.72-3.21 129.11-3.21ZM148.75-27.69L148.75-33.62 144.98-33.62 144.98-27.69 148.75-27.69ZM144.98-26.41L144.98-20.35 148.75-20.35 148.75-26.41 144.98-26.41ZM148.75-19.07L144.98-19.07 144.98-16.26Q144.98-16.04 144.45-15.67 143.92-15.29 142.78-14.94 141.64-14.59 140.27-14.59L140.27-14.59 139.17-14.59 139.17-37.27 145.59-34.89 148.32-34.89 150.91-37.79 156.4-33.62Q155.83-32.87 154.6-32.65L154.6-32.65 154.6-17.89Q154.56-17.71 153.79-17.4 153.02-17.09 151.83-16.81 150.64-16.52 149.77-16.52L149.77-16.52 148.75-16.52 148.75-19.07ZM150.34-10.24L147.96-10.24 147.96 1.49 150.34 1.49 150.34-10.24ZM158.55 1.49L158.55-10.24 156.18-10.24 156.18 1.49 158.55 1.49ZM166.73 1.49L166.73-10.24 164.4-10.24 164.4 1.49 166.73 1.49ZM163.61-25.22L163.61-25.22 168.97-25.22 168.97-29 163.7-29 163.7-27.47Q163.7-25.97 163.61-25.22ZM168.97-30.28L168.97-34.1 163.7-34.1 163.7-30.28 168.97-30.28ZM173.06-9.67L173.06 1.05 174.95-2.11Q177.45 0.4 178.77 2.02L178.77 2.02Q178.59 2.72 177.63 2.72L177.63 2.72 136.63 2.72 136.27 1.49 141.94 1.49 141.94-13.93 148.36-11.51 166.33-11.51 167.96-13.62Q167.83-16.44 167.08-17.27L167.08-17.27Q165.98-18.59 163.74-18.9L163.74-18.9 163.74-19.42Q167.34-19.25 168.18-19.25L168.18-19.25Q168.97-19.25 168.97-20.08L168.97-20.08 168.97-23.99 163.48-23.99Q162.29-16.08 153.19-12.7L153.19-12.7 152.89-13.05Q155.74-15.78 156.64-19.25 157.54-22.72 157.54-27.47L157.54-27.47 157.54-37.79 164.66-35.38 168.53-35.38 171.3-38.5 177.14-34.06Q176.66-33.4 175.52-33.18L175.52-33.18 175.52-19.6Q175.52-16.96 174.48-15.67 173.45-14.37 170.24-13.89L170.24-13.89 175.08-10.63Q174.59-9.93 173.06-9.67L173.06-9.67Z" transform="translate(-1.6299999952316284, 38.630001068115234)"></path></g> <!----> <!----> <!----> <!----> <!----> <!----> <!----></g></g> <g data-gra="path-slogan" fill-rule="" class="tp-slogan iconsvg-slogansvg" fill="#333" transform="translate(26.179996490478516,49.15999984741211)"><!----> <!----> <g transform="scale(1, 1)"><g transform="scale(1)"><path d="M8.06-6.05L8.06-6.05L6.94-6.05Q6.52-7.78 4.55-7.83L4.55-7.83Q1.83-7.69 1.73-4.36L1.73-4.36Q1.73-0.80 4.59-0.80L4.59-0.80Q6.56-0.84 7.03-3.19L7.03-3.19L8.16-3.19Q7.64 0.05 4.36 0.14L4.36 0.14Q0.61 0 0.52-4.31L0.52-4.31Q0.70-8.63 4.55-8.81L4.55-8.81Q7.59-8.72 8.06-6.05ZM10.69-5.06L15.19-5.06L15.19-8.58L16.36-8.58L16.36 0L15.19 0L15.19-3.98L10.69-3.98L10.69 0L9.52 0L9.52-8.58L10.69-8.58L10.69-5.06ZM23.81 0L22.97-2.48L19.50-2.48L18.61 0L17.44 0L20.67-8.58L21.98-8.58L25.08 0L23.81 0ZM21.23-7.31L19.88-3.52L22.55-3.52L21.28-7.31L21.23-7.31ZM27.52-8.58L31.83-1.64L31.83-8.58L32.95-8.58L32.95 0L31.64 0L27.28-6.94L27.23-6.94L27.23 0L26.11 0L26.11-8.58L27.52-8.58ZM41.16-3.61L38.53-3.61L38.53-4.59L42.28-4.59L42.28 0L41.53 0L41.25-1.08Q40.27 0.09 38.44 0.14L38.44 0.14Q36.70 0.14 35.77-0.75L35.77-0.75Q34.36-2.06 34.41-4.36L34.41-4.36Q34.73-8.63 38.48-8.81L38.48-8.81Q41.67-8.63 42.14-6L42.14-6L41.02-6Q40.55-7.78 38.44-7.83L38.44-7.83Q35.77-7.64 35.63-4.31L35.63-4.31Q35.63-0.75 38.48-0.75L38.48-0.75Q39.52-0.75 40.27-1.31L40.27-1.31Q41.20-2.06 41.16-3.61L41.16-3.61ZM50.34-6.09L50.34-6.09L49.27-6.09Q49.17-7.73 47.11-7.83L47.11-7.83Q45.19-7.78 45.19-6.33L45.19-6.33Q45.19-5.39 46.22-5.25L46.22-5.25L48.66-4.69Q50.58-4.22 50.58-2.34L50.58-2.34Q50.53 0.05 47.20 0.14L47.20 0.14Q45.38 0.14 44.63-0.61L44.63-0.61Q43.69-1.31 43.73-2.77L43.73-2.77L44.86-2.77Q44.91-0.80 47.20-0.75L47.20-0.75Q49.45-0.80 49.50-2.20L49.50-2.20Q49.69-3.38 47.63-3.75L47.63-3.75L45.84-4.13Q44.02-4.64 44.02-6.19L44.02-6.19Q44.16-8.72 47.02-8.81L47.02-8.81Q50.25-8.81 50.34-6.09ZM53.20-5.06L57.70-5.06L57.70-8.58L58.88-8.58L58.88 0L57.70 0L57.70-3.98L53.20-3.98L53.20 0L52.03 0L52.03-8.58L53.20-8.58L53.20-5.06ZM66.33 0L65.48-2.48L62.02-2.48L61.13 0L59.95 0L63.19-8.58L64.50-8.58L67.59 0L66.33 0ZM63.75-7.31L62.39-3.52L65.06-3.52L63.80-7.31L63.75-7.31ZM74.48-4.31L73.13-3.05L73.13 0L71.95 0L71.95-8.58L73.13-8.58L73.13-4.41L77.30-8.58L78.94-8.58L75.33-5.11L79.03 0L77.48 0L74.48-4.31ZM85.59 0L84.75-2.48L81.28-2.48L80.39 0L79.22 0L82.45-8.58L83.77-8.58L86.86 0L85.59 0ZM83.02-7.31L81.66-3.52L84.33-3.52L83.06-7.31L83.02-7.31ZM88.08-8.58L89.25-8.58L89.25 0L88.08 0L88.08-8.58ZM99.47-8.58L99.47 0L98.34 0L98.34-5.06Q98.34-5.77 98.34-7.22L98.34-7.22L95.91 0L94.73 0L92.34-7.22L92.30-7.22Q92.30-6.70 92.34-5.67L92.34-5.67Q92.34-5.16 92.34-5.06L92.34-5.06L92.34 0L91.17 0L91.17-8.58L92.86-8.58L95.34-1.31L97.78-8.58L99.47-8.58ZM102.47-1.03L107.63-1.03L107.63 0L101.30 0L101.30-8.58L107.53-8.58L107.53-7.59L102.47-7.59L102.47-4.92L107.16-4.92L107.16-3.89L102.47-3.89L102.47-1.03ZM110.53-8.58L114.84-1.64L114.84-8.58L115.97-8.58L115.97 0L114.66 0L110.30-6.94L110.25-6.94L110.25 0L109.13 0L109.13-8.58L110.53-8.58ZM124.17-3.61L121.55-3.61L121.55-4.59L125.30-4.59L125.30 0L124.55 0L124.27-1.08Q123.28 0.09 121.45 0.14L121.45 0.14Q119.72 0.14 118.78-0.75L118.78-0.75Q117.38-2.06 117.42-4.36L117.42-4.36Q117.75-8.63 121.50-8.81L121.50-8.81Q124.69-8.63 125.16-6L125.16-6L124.03-6Q123.56-7.78 121.45-7.83L121.45-7.83Q118.78-7.64 118.64-4.31L118.64-4.31Q118.64-0.75 121.50-0.75L121.50-0.75Q122.53-0.75 123.28-1.31L123.28-1.31Q124.22-2.06 124.17-3.61L124.17-3.61Z" transform="translate(-0.515625, 8.8125)"></path></g></g></g></g></g><defs v-gra="od"></defs></svg>